<?xml version="1.0" standalone="no"?>
<!DOCTYPE svg PUBLIC "-//W3C//DTD SVG 20010904//EN"
 "http://www.w3.org/TR/2001/REC-SVG-20010904/DTD/svg10.dtd">
<svg version="1.0" xmlns="http://www.w3.org/2000/svg"
 width="350.000000pt" height="350.000000pt" viewBox="0 0 350.000000 350.000000"
 preserveAspectRatio="xMidYMid meet">

<g transform="translate(0.000000,350.000000) scale(0.100000,-0.100000)"
fill="#000000" stroke="none">
<path d="M1610 2874 c-58 -30 -197 -106 -310 -168 -113 -62 -268 -147 -345
-188 l-140 -74 -6 -114 c-4 -63 -7 -334 -8 -601 -1 -374 2 -489 12 -501 6 -9
66 -45 132 -81 130 -69 407 -219 605 -328 183 -100 175 -98 267 -52 105 51
405 212 528 283 55 32 150 85 212 119 62 34 115 70 118 80 10 31 -3 1163 -14
1174 -6 6 -51 -13 -128 -53 -263 -140 -363 -188 -383 -183 -11 3 -20 8 -20 10
0 3 9 3 20 0 11 -3 23 -1 26 4 3 5 -5 9 -18 10 -13 0 -17 3 -10 6 9 3 7 12 -8
30 -25 33 -26 53 0 53 25 0 25 1 -1 44 -25 43 -52 53 -87 31 -26 -15 -26 -15
2 9 17 14 33 23 36 21 4 -2 22 8 41 23 19 15 56 38 83 52 26 14 50 31 53 38 3
6 13 12 22 13 9 0 11 3 4 5 -7 3 -9 12 -6 20 3 8 -2 25 -11 39 -9 14 -14 25
-11 25 15 0 -38 40 -68 51 -20 7 -34 16 -31 21 5 8 -10 12 -34 9 -7 -1 -11 3
-10 9 2 6 -28 29 -67 50 -38 22 -83 47 -100 56 -16 9 -34 23 -38 30 -4 8 -17
14 -27 14 -10 0 -22 5 -25 10 -10 17 -103 60 -127 60 -13 0 -70 -25 -128 -56z
m597 -230 c-3 -3 -12 -4 -19 -1 -8 3 -5 6 6 6 11 1 17 -2 13 -5z m33 -14 c0
-5 -5 -10 -11 -10 -5 0 -7 5 -4 10 3 6 8 10 11 10 2 0 4 -4 4 -10z m-220 -274
c0 -2 -7 -7 -16 -10 -8 -3 -12 -2 -9 4 6 10 25 14 25 6z m530 -201 c0 -43 -4
-75 -10 -75 -5 0 -11 15 -11 33 -2 28 -2 29 -6 6 -5 -30 -36 -44 -53 -24 -6 8
-25 17 -41 20 -16 4 -31 10 -34 14 -2 5 25 23 60 41 36 18 70 39 76 47 6 7 13
13 15 13 2 0 4 -34 4 -75z"/>
<path d="M2511 2174 c0 -11 3 -14 6 -6 3 7 2 16 -1 19 -3 4 -6 -2 -5 -13z"/>
<path d="M2480 2130 c0 -11 5 -20 10 -20 6 0 10 9 10 20 0 11 -4 20 -10 20 -5
0 -10 -9 -10 -20z"/>
<path d="M2320 2560 c0 -5 5 -10 10 -10 6 0 10 5 10 10 0 6 -4 10 -10 10 -5 0
-10 -4 -10 -10z"/>
<path d="M2105 2400 c-3 -5 -2 -10 4 -10 5 0 13 5 16 10 3 6 2 10 -4 10 -5 0
-13 -4 -16 -10z"/>
<path d="M2145 2390 c-3 -5 -1 -10 4 -10 6 0 11 5 11 10 0 6 -2 10 -4 10 -3 0
-8 -4 -11 -10z"/>
</g>
</svg>
